# xmcd
#
# Track frame offsets:
#	150
#	16229
#	32555
#	51010
#	67216
#	82955
#	93510
#	109242
#	127450
#	144394
#	157880
#	178981
#	193124
#
# Disc length: 3046 seconds
#
# Revision: 0
# Processed by: cddbd v1.5.2PL0 Copyright (c) Steve Scherf et al.
# Submitted via: EasyCDDAExtractor 12.0.1.1
#
DISCID=b70be40d
DTITLE=Steve Hofmeyr - Sings Kris Kristofferson
DYEAR=1900
DGENRE=
TTITLE0=You Show Me Yours
TTITLE1=For The Good Times
TTITLE2=The Silver Tongued Devil And I
TTITLE3=Who's To Bless And Who's To Blame
TTITLE4=Darby's Castle
TTITLE5=Jesus Was A Capricorn
TTITLE6=Casey's Last Ride
TTITLE7=Loving Her Was Easier
TTITLE8=Me And Bobby Mcgee
TTITLE9=I'd Rather Be Sorry
TTITLE10=Sunday Mornin' Comin' Down
TTITLE11=Why Me
TTITLE12=Help Me Make It Through The Night
EXTD=
EXTT0=
EXTT1=
EXTT2=
EXTT3=
EXTT4=
EXTT5=
EXTT6=
EXTT7=
EXTT8=
EXTT9=
EXTT10=
EXTT11=
EXTT12=
PLAYORDER=
